# xmcd
#
# Track frame offsets:
#	150
#	13153
#	31903
#	47485
#	69460
#	84010
#	102084
#	116442
#	130646
#	149357
#	167088
#	178976
#
# Disc length: 2683 seconds
#
# Revision: 1
# Processed by: cddbd v1.5.2PL0 Copyright (c) Steve Scherf et al.
# Submitted via: audiograbber 1.83.01
#
DISCID=940a790c
DTITLE=Treml Schuier Rill - Heart and Soul and Rock´N´Roll
DYEAR=2014
DGENRE=
TTITLE0=Heart and Soul and Rock´n´Roll
TTITLE1=Elvis is alive
TTITLE2=Girl on the a-train
TTITLE3=More than you need
TTITLE4=Jane
TTITLE5=Pony on the plains
TTITLE6=Tomorrow it will
TTITLE7=For so long
TTITLE8=Angel on the stairs
TTITLE9=Secret path
TTITLE10=Snuggle up, little one
TTITLE11=More than you need
EXTD=
EXTT0=
EXTT1=
EXTT2=
EXTT3=
EXTT4=
EXTT5=
EXTT6=
EXTT7=
EXTT8=
EXTT9=
EXTT10=
EXTT11=
PLAYORDER=
